<svg xmlns="http://www.w3.org/2000/svg" viewBox="0 0 1600 700" role="img" aria-labelledby="t d"><title id="t">Serviços gráficos Croma</title><desc id="d">Ilustração de impressos, placa e adesivos.</desc><defs><linearGradient id="b" x1="0" y1="0" x2="1" y2="1"><stop stop-color="#1f1a58"/><stop offset=".6" stop-color="#30297f"/><stop offset="1" stop-color="#006fa0"/></linearGradient></defs><rect width="1600" height="700" fill="url(#b)"/><circle cx="1360" cy="-20" r="300" fill="none" stroke="#fff" stroke-opacity=".06" stroke-width="85"/><g transform="translate(900 115)"><rect x="0" y="110" width="390" height="250" rx="28" fill="#fff" transform="rotate(-7 195 235)"/><rect x="32" y="142" width="150" height="112" rx="18" fill="#e7f7fd" transform="rotate(-7 107 198)"/><rect x="210" y="150" width="132" height="14" rx="7" fill="#30297f" transform="rotate(-7 276 157)"/><rect x="210" y="184" width="98" height="10" rx="5" fill="#aaa6bf" transform="rotate(-7 259 189)"/><rect x="210" y="218" width="118" height="32" rx="16" fill="#c30079" transform="rotate(-7 269 234)"/><rect x="120" y="8" width="360" height="225" rx="26" fill="#f8f7fd" transform="rotate(8 300 120)"/><rect x="156" y="44" width="125" height="125" rx="20" fill="#fff4bd" transform="rotate(8 218 106)"/><circle cx="218" cy="106" r="38" fill="#ffcf00" fill-opacity=".8" transform="rotate(8 218 106)"/><rect x="305" y="52" width="122" height="14" rx="7" fill="#30297f" transform="rotate(8 366 59)"/><rect x="305" y="85" width="92" height="10" rx="5" fill="#aaa6bf" transform="rotate(8 351 90)"/><rect x="305" y="128" width="108" height="30" rx="15" fill="#009cdf" transform="rotate(8 359 143)"/><g transform="translate(370 300)"><rect width="250" height="160" rx="24" fill="#201b58" stroke="#fff" stroke-opacity=".25" stroke-width="3"/><path d="M40 105 C80 45 110 45 150 105 S220 165 235 88" fill="none" stroke="#80b03d" stroke-width="14" stroke-linecap="round"/><circle cx="66" cy="54" r="18" fill="#c30079"/><circle cx="185" cy="47" r="15" fill="#009cdf"/></g></g><g opacity=".8"><circle cx="842" cy="120" r="11" fill="#ffec00"/><circle cx="1460" cy="525" r="14" fill="#c30079"/><circle cx="820" cy="570" r="8" fill="#80b03d"/></g></svg>